<svg version="1.1" id="Layer_1" xmlns="http://www.w3.org/2000/svg" xmlns:xlink="http://www.w3.org/1999/xlink" x="0px" y="0px"
	 viewBox="0 0 512 512" style="enable-background:new 0 0 512 512;" xml:space="preserve" width="{{ .width }}" height="{{ .height }}">
<circle style="fill:#FF9911;" cx="256" cy="256" r="247.916"/>
<path style="fill:#ED8800;" d="M256,8.084c-10.96,0-21.752,0.72-32.337,2.099C345.304,26.029,439.242,130.04,439.242,256
	s-93.939,229.971-215.579,245.817c10.585,1.379,21.377,2.099,32.337,2.099c136.921,0,247.916-110.996,247.916-247.916
	S392.921,8.084,256,8.084z"/>
<g>
	<path style="fill:#FCFCFC;" d="M158.989,396.665c-24.072,0-43.655-19.583-43.655-43.655c0-24.072,19.583-43.655,43.655-43.655
		s43.655,19.583,43.655,43.655C202.644,377.082,183.061,396.665,158.989,396.665z"/>
	<path style="fill:#FCFCFC;" d="M250.072,383.742v-9.724c0-61.906-50.185-112.09-112.089-112.09h-9.724
		c-1.185,0-2.144-0.96-2.144-2.144v-56.073c0-1.185,0.96-2.144,2.144-2.144h9.724c95.242-0.001,172.451,77.209,172.451,172.45v9.724
		c0,1.185-0.96,2.144-2.144,2.144h-56.073C251.032,385.886,250.072,384.926,250.072,383.742z"/>
	<path style="fill:#FCFCFC;" d="M357.861,383.742v-9.724c0-121.437-98.443-219.88-219.879-219.88h-9.724
		c-1.185,0-2.144-0.96-2.144-2.144V95.921c0-1.185,0.96-2.144,2.144-2.144h11.868c74.283,0,144.119,28.926,196.645,81.452
		c52.526,52.526,81.452,122.362,81.452,196.645v11.869c0,1.185-0.96,2.144-2.144,2.144h-56.073
		C358.821,385.886,357.861,384.926,357.861,383.742z"/>
</g>
<path d="M437.019,74.981C388.667,26.628,324.379,0,256,0S123.333,26.628,74.981,74.981S0,187.62,0,256
	s26.628,132.667,74.981,181.019S187.62,512,256,512s132.667-26.628,181.019-74.981S512,324.379,512,256
	S485.372,123.333,437.019,74.981z M256,495.832C123.756,495.832,16.168,388.244,16.168,256S123.756,16.168,256,16.168
	S495.832,123.756,495.832,256S388.244,495.832,256,495.832z"/>
<path d="M340.704,168.502c-53.899-53.18-127.05-82.27-202.768-82.27h-11.283c-4.465,0-8.084,3.62-8.084,8.084V153.6
	c0,4.465,3.62,8.084,8.084,8.084h13.474c83.284,0,155.408,48.69,189.407,119.098c1.344,2.784,4.167,4.55,7.26,4.55l0,0
	c5.987,0,9.855-6.265,7.249-11.655c-36.633-75.768-114.265-128.161-203.915-128.161h-5.389V102.4h3.323
	c71.432,0,140.442,27.443,191.291,77.614c51.734,51.043,80.249,119.26,80.249,191.86v5.389h-43.116v-5.389
	c0-19.796-2.564-39.001-7.363-57.313c-0.93-3.551-4.153-6.019-7.823-6.019l0,0c-5.306,0-9.149,5.02-7.805,10.154
	c4.45,16.991,6.823,34.812,6.823,53.178v13.474c0,4.465,3.62,8.084,8.084,8.084h59.284c4.465,0,8.084-3.62,8.084-8.084v-13.474
	C425.768,294.917,395.541,222.608,340.704,168.502z"/>
<path d="M140.126,194.021h-13.474c-4.465,0-8.084,3.62-8.084,8.084v59.284c0,4.465,3.62,8.084,8.084,8.084h13.474
	c56.463,0,102.4,45.937,102.4,102.4v13.474c0,4.465,3.62,8.084,8.084,8.084h59.284c4.465,0,8.084-3.62,8.084-8.084v-13.474
	C317.979,273.806,238.194,194.021,140.126,194.021z M301.811,377.263h-43.116v-5.389c0-65.379-53.19-118.568-118.568-118.568h-5.389
	v-43.116h5.389c89.153,0,161.684,72.532,161.684,161.684V377.263z"/>
<path d="M158.989,301.811c-28.231,0-51.2,22.969-51.2,51.2c0,28.231,22.969,51.2,51.2,51.2s51.2-22.969,51.2-51.2
	C210.189,324.779,187.221,301.811,158.989,301.811z M158.989,388.042c-19.316,0-35.032-15.716-35.032-35.032
	s15.716-35.032,35.032-35.032s35.032,15.716,35.032,35.032S178.305,388.042,158.989,388.042z"/>
<g>
</g>
<g>
</g>
<g>
</g>
<g>
</g>
<g>
</g>
<g>
</g>
<g>
</g>
<g>
</g>
<g>
</g>
<g>
</g>
<g>
</g>
<g>
</g>
<g>
</g>
<g>
</g>
<g>
</g>
</svg>
