<svg width="{{ .width }}" height="{{ .height }}" viewBox="0 0 52 60" xmlns="http://www.w3.org/2000/svg"><g id="008---Up-Arrow" fill="none"><g id="Icons" transform="translate(0 1)"><path id="Shape" d="m50.7 46.7v.01c-.1911631.1896681-.4507427.294221-.72.29h-47.96c-.26925727.004221-.52883694-.1003319-.72-.29v-.01c-.28831196-.271875-.37970622-.6930833-.23-1.06l9.15-23.5 3.03-7.78c.1198254-.3103866.0774312-.6600418-.1130979-.9327992-.1905291-.2727575-.5042377-.4328916-.8369021-.4272008h-5.3c-.2497839.0036288-.49205032-.0854397-.68-.25v-.01c-.24295108-.2087471-.36868938-.5229581-.33681702-.8416817s.21734079-.6018139.49681702-.7583183l18.02-10.28.98-.56c.3233022-.17999643.7166978-.17999643 1.04 0l19 10.84c.2794762.1565044.4649447.4395947.496817.7583183.0318724.3187236-.0938659.6329346-.336817.8416817v.01c-.1879497.1645603-.4302161.2536288-.68.25h-5.3c-.3326644-.0056908-.646373.1544433-.8369021.4272008-.1905291.2727574-.2329233.6224126-.1130979.9327992l3.03 7.78 9.15 23.5c.1497062.3669167.058312.788125-.23 1.06z" fill="#02a9f4"/><path id="Shape" d="m42.52 11.14c.2794762.1565044.4649447.4395947.496817.7583183.0318724.3187236-.0938659.6329346-.336817.8416817v.01c-.1879497.1645603-.4302161.2536288-.68.25h3c.2497839.0036288.4920503-.0854397.68-.25v-.01c.2429511-.2087471.3686894-.5229581.336817-.8416817-.0318723-.3187236-.2173408-.6018139-.496817-.7583183l-19-10.84c-.3233022-.17999643-.7166978-.17999643-1.04 0l-.979.56z" fill="#0377bc"/><path id="Shape" d="m50.93 45.64-9.15-23.5-3.03-7.78c-.1198254-.3103866-.0774312-.6600418.1130979-.9327992.1905291-.2727575.5042377-.4328916.8369021-.4272008h-3c-.3326644-.0056908-.646373.1544433-.8369021.4272008-.1905291.2727574-.2329233.6224126-.1130979.9327992l3.03 7.78 9.15 23.5c.1497062.3669167.058312.788125-.23 1.06v.01c-.1911631.1896681-.4507427.294221-.72.29h3c.2692573.004221.5288369-.1003319.72-.29v-.01c.288312-.271875.3797062-.6930833.23-1.06z" fill="#0377bc"/><path id="Shape" d="m50.7 46.71-4.44 10.67c-.1547874.3767941-.5226565.6220401-.93.62h-38.66c-.40734353.0020401-.77521263-.2432059-.93-.62l-4.32-10.38-.12-.29c.19116306.1896681.45074273.294221.72.29h47.96c.2692573.004221.5288369-.1003319.72-.29z" fill="#3f51b5"/><path id="Shape" d="m2.02 47c-.26925727.004221-.52883694-.1003319-.72-.29l.12.29z" fill="#283593"/><path id="Shape" d="m49.98 47h-2.4l-4.32 10.38c-.1547874.3767941-.5226565.6220401-.93.6200126l3-.0000126c.4073435.0020401.7752126-.2432059.93-.62l4.44-10.67c-.1911631.1896681-.4507427.294221-.72.29z" fill="#283593"/><path id="Shape" d="m13.25 14.36-3.03 7.78-3.9-9.39c.18794968.1645603.4302161.2536288.68.25h5.3c.3326644-.0056908.646373.1544433.8369021.4272008.1905291.2727574.2329233.6224126.1130979.9327992z" fill="#3f51b5"/><path id="Shape" d="m45.68 12.75-3.9 9.39-1.45-3.73-1.58-4.05c-.1198254-.3103866-.0774312-.6600418.1130979-.9327992.1905291-.2727575.5042377-.4328916.8369021-.4272008h5.3c.2497839.0036288.4920503-.0854397.68-.25z" fill="#283593"/></g><g id="Layer_10" fill="#000"><path id="Shape" d="m.422 48.2 4.4 10.563c.30646207.7489663 1.03576041 1.2379322 1.845 1.237h38.666c.8082203.0026096 1.5377417-.4838697 1.846-1.231 4.9-11.777 4.324-10.43 4.472-10.647.371214-.5410551.4505938-1.2307607.212-1.842l-9-23.143 3.69-8.888c.3796294-.4467605.5389673-1.0401859.4341772-1.6170156-.1047901-.5768296-.4626685-1.0762947-.9751772-1.3609844l-18.992-10.835c-.6292665-.3635455-1.4047335-.3635455-2.034 0l-19.007 10.838c-.51041628.2860644-.86605691.7855074-.96943022 1.3614167-.10337331.5759094.05636658 1.167861.43543022 1.6135833l3.7 8.9-9 23.127c-.25858821.6446969-.15295159 1.3784328.277 1.924zm44.911 9.8h-38.666l-3.748-9h46.162zm-5.633-43h4.376l-2.26 5.443zm-13.677-12.831 18.968 10.831h-5.291c-.6627701-.0061358-1.2855311.316474-1.6628338.8614001-.3773028.5449261-.4601335 1.2413795-.2211662 1.8595999l12.164 31.279h-47.975l12.178-31.28c.238474-.6179412.1555415-1.3138672-.2214702-1.8584618-.3770116-.5445947-.9991938-.8672092-1.6615298-.8615382h-5.284l-.011-.012zm-18.101 12.831h4.4l-2.132 5.461z"/><path id="Shape" d="m10.605 38.034c-.5332127-.1431788-1.08157088.1728546-1.225.706l-1.346 5c-.14359403.5335071.17249293 1.082406.706 1.226s1.08240597-.1724929 1.226-.706l1.346-5c.0690266-.2563388.0332935-.5296048-.0993245-.7595759-.1326179-.2299712-.351236-.3977725-.6076755-.4664241z"/><path id="Shape" d="m11.7 33.966c.2562027.0690611.5293493.0334647.7592956-.0989513.2299462-.1324161.397837-.3507938.4667044-.6070487l4.038-15c.143594-.5335071-.172493-1.0824059-.706-1.226-.5335071-.143594-1.082406.1724929-1.226.706l-4.032 15c-.1442267.5317199.1687826 1.0799333.7 1.226z"/><path id="Shape" d="m8.929 50.628c-.20544993-.5130725-.78792747-.7624499-1.301-.557s-.76244993.7879275-.557 1.301l2 5c.20544993.5130725.78792747.7624499 1.301.557.5130725-.2054499.7624499-.7879275.557-1.301z"/></g></g></svg>