<svg version="1.1" id="Layer_1" xmlns="http://www.w3.org/2000/svg" xmlns:xlink="http://www.w3.org/1999/xlink" x="0px" y="0px"
	 viewBox="0 0 512 512" style="enable-background:new 0 0 512 512;" xml:space="preserve" width="{{ .width }}" height="{{ .height }}">
<circle style="fill:#CCCCCC;" cx="256" cy="132.304" r="122.105"/>
<path style="fill:#FFAD61;" d="M224.188,469.99V317.344h63.624V469.99c0,17.569-14.242,31.811-31.811,31.811l0,0
	C238.431,501.801,224.188,487.559,224.188,469.99z"/>
<g>
	<path style="fill:#4D3D36;" d="M388.306,132.306C388.306,59.352,328.953,0,256,0S123.694,59.352,123.694,132.306
		c0,69.523,53.901,126.692,122.107,131.917v42.921h-21.612c-5.632,0-10.199,4.567-10.199,10.199V469.99
		c0,23.165,18.846,42.01,42.011,42.01c23.164,0,42.01-18.846,42.01-42.01V317.344c0-5.632-4.567-10.199-10.199-10.199h-21.612
		v-42.921C334.405,258.999,388.306,201.828,388.306,132.306z M277.612,469.99c0,11.918-9.695,21.612-21.612,21.612
		c-11.917,0-21.612-9.695-21.612-21.612V327.543h43.225V469.99H277.612z M144.092,132.306C144.092,70.6,194.294,20.398,256,20.398
		S367.908,70.6,367.908,132.306S317.706,244.214,256,244.214S144.092,194.012,144.092,132.306z"/>
	<path style="fill:#4D3D36;" d="M285.496,223.952c1.153,0,2.325-0.197,3.472-0.613c23.997-8.692,43.963-26.961,54.779-50.121
		c2.384-5.104,0.178-11.173-4.925-13.557c-5.105-2.385-11.174-0.178-13.557,4.925c-8.541,18.288-24.302,32.712-43.243,39.573
		c-5.296,1.918-8.035,7.767-6.116,13.063C277.408,221.374,281.324,223.952,285.496,223.952z"/>
	<path style="fill:#4D3D36;" d="M341.517,149.406c0.274,0.021,0.547,0.033,0.817,0.033c5.268,0,9.733-4.053,10.156-9.394
		c0.203-2.56,0.306-5.164,0.306-7.739c0-5.632-4.567-10.199-10.199-10.199c-5.632,0-10.199,4.567-10.199,10.199
		c0,2.04-0.082,4.101-0.242,6.128C331.71,144.048,335.902,148.961,341.517,149.406z"/>
</g>
<g>
</g>
<g>
</g>
<g>
</g>
<g>
</g>
<g>
</g>
<g>
</g>
<g>
</g>
<g>
</g>
<g>
</g>
<g>
</g>
<g>
</g>
<g>
</g>
<g>
</g>
<g>
</g>
<g>
</g>
</svg>
