<svg fill="#000000" xmlns="http://www.w3.org/2000/svg" viewBox="0 0 24 24" width="{{ .width }}" height="{{ .height }}"><path fill="currentColor" d="M 5.8828125 0 C 5.4058125 0 5.0052969 0.33673437 4.9042969 0.80273438 C 4.6462969 1.9787344 3.8046562 3.6990937 1.5976562 4.7460938 C 1.2426563 4.9140938 1 5.2544844 1 5.6464844 L 1 5.6640625 C 1 6.3430625 1.6834063 6.8358437 2.3164062 6.5898438 C 3.9300184 5.9610287 5.0092111 5.0191537 5.7265625 4 L 7.1992188 4 C 7.4744545 4.4331358 7.7104935 4.9265143 7.8496094 5.3359375 C 7.9866094 5.7379375 8.3650625 6 8.7890625 6 L 8.8066406 6 C 9.4916406 6 9.9678125 5.3316875 9.7578125 4.6796875 C 9.6865439 4.4574261 9.5914626 4.2276152 9.4941406 4 L 12 4 C 12.552 4 13 3.552 13 3 C 13 2.448 12.552 2 12 2 L 6.6933594 2 C 6.7792031 1.7123656 6.8517236 1.4294355 6.8984375 1.1582031 C 7.0034375 0.55020313 6.52225 0 5.90625 0 L 5.8828125 0 z M 17.882812 0 C 17.405812 0 17.005297 0.33673437 16.904297 0.80273438 C 16.647297 1.9797344 15.805656 3.6990937 13.597656 4.7460938 C 13.242656 4.9140938 13 5.2544844 13 5.6464844 L 13 5.6640625 C 13 6.3430625 13.683406 6.8368437 14.316406 6.5898438 C 15.929905 5.9615927 17.00895 5.0190912 17.726562 4 L 19.199219 4 C 19.474454 4.4331358 19.710494 4.9265143 19.849609 5.3359375 C 19.986609 5.7379375 20.365062 6 20.789062 6 L 20.806641 6 C 21.491641 6 21.967813 5.3316875 21.757812 4.6796875 C 21.686544 4.4574261 21.591463 4.2276152 21.494141 4 L 23 4 C 23.552 4 24 3.552 24 3 C 24 2.448 23.552 2 23 2 L 18.695312 2 C 18.781222 1.7121949 18.851713 1.4276895 18.898438 1.15625 C 19.002437 0.54925 18.52225 0 17.90625 0 L 17.882812 0 z M 4.0175781 5.9902344 A 1.0001 1.0001 0 0 0 3.2734375 7.6875 C 3.2734375 7.6875 3.6845505 8.0838339 4.0410156 9.2851562 A 1.0004825 1.0004825 0 1 0 5.9589844 8.7148438 C 5.4994495 7.1661661 4.7265625 6.3125 4.7265625 6.3125 A 1.0001 1.0001 0 0 0 4.0175781 5.9902344 z M 8 7 A 1.0001 1.0001 0 1 0 8 9 L 20 9 L 20 21 C 20 21.56503 19.56503 22 19 22 L 18 22 A 1.0001 1.0001 0 1 0 18 24 L 19 24 C 20.64497 24 22 22.64497 22 21 L 22 8 A 1.0001 1.0001 0 0 0 21 7 L 8 7 z M 2.984375 8.9863281 A 1.0001 1.0001 0 0 0 2 10 L 2 22 A 1.0001 1.0001 0 1 0 4 22 L 4 10 A 1.0001 1.0001 0 0 0 2.984375 8.9863281 z M 8 11 A 1.0001 1.0001 0 0 0 7 12 L 7 20 A 1.0001 1.0001 0 0 0 8 21 L 14 21 C 15.64497 21 17 19.64497 17 18 L 17 12 A 1.0001 1.0001 0 0 0 16 11 L 8 11 z M 9 13 L 15 13 L 15 15 L 9 15 L 9 13 z M 9 17 L 15 17 L 15 18 C 15 18.56503 14.56503 19 14 19 L 9 19 L 9 17 z"/></svg>