<svg fill="#000000" xmlns="http://www.w3.org/2000/svg" viewBox="0 0 24 24" width="{{ .width }}" height="{{ .height }}"><path fill="currentColor" d="M 3.6054688 0.95117188 C 3.2170625 0.98154688 2.8668281 1.2390625 2.7363281 1.6328125 L 2.1035156 3.53125 A 1.0001 1.0001 0 0 0 2.1015625 3.5332031 A 1.0001 1.0001 0 0 0 1.9980469 3.84375 L 1.3671875 5.7363281 C 1.1921875 6.2593281 1.476 6.825 2 7 C 2.524 7.175 3.0896719 6.8911875 3.2636719 6.3671875 L 3.7207031 5 L 5.0273438 5 C 5.0684081 6.1272616 5.1492481 9.0132833 5.03125 12 L 2 12 A 1.0001 1.0001 0 1 0 2 14 L 4.9179688 14 C 4.6110754 17.362011 3.7780491 19.890752 1.2519531 21.658203 C 0.83895313 21.947203 0.72070312 22.509266 0.97070312 22.947266 L 0.97851562 22.962891 C 1.2705156 23.473891 1.9447813 23.617344 2.4257812 23.277344 C 5.7432444 20.930801 6.6259867 17.49621 6.9238281 14 L 9 14 A 1.0001 1.0001 0 1 0 9 12 L 7.0332031 12 C 7.1485375 9.0065383 7.0722558 6.2240083 7.0273438 5 L 9 5 A 1.0001 1.0001 0 1 0 9 3 L 4.3867188 3 L 4.6328125 2.2636719 C 4.8068125 1.7406719 4.524 1.175 4 1 C 3.869 0.95625 3.7349375 0.94104687 3.6054688 0.95117188 z M 13 3 A 1.0001 1.0001 0 0 0 12 4 L 12 20 A 1.0001 1.0001 0 0 0 13 21 L 14 21 L 14 22 A 1.0001 1.0001 0 0 0 15.554688 22.832031 L 18.302734 21 L 21 21 A 1.0001 1.0001 0 0 0 22 20 L 22 4 A 1.0001 1.0001 0 0 0 21 3 L 13 3 z M 14 5 L 20 5 L 20 19 L 18 19 A 1.0001 1.0001 0 0 0 17.445312 19.167969 L 16 20.130859 L 16 20 A 1.0001 1.0001 0 0 0 15 19 L 14 19 L 14 5 z M 7.2714844 17.298828 C 7.0178594 17.263828 6.75125 17.325187 6.53125 17.492188 C 6.09125 17.826188 6.0048906 18.454531 6.3378906 18.894531 L 8.5996094 21.806641 C 8.9336094 22.246641 9.56 22.333 10 22 C 10.44 21.666 10.527359 21.039609 10.193359 20.599609 L 7.9316406 17.685547 C 7.7651406 17.465547 7.5251094 17.333828 7.2714844 17.298828 z"/></svg>