<svg xmlns="http://www.w3.org/2000/svg" viewBox="0 0 128 128" width="64px" height="64px"><path fill="#8ccfb9" d="M83.8,48.4c1.7-3.2,2.7-6.8,2.7-10.7c0-12.6-10.2-22.9-22.8-22.9S40.9,25.1,40.9,37.7 c0,0.5,0,1.1,0.1,1.6c-11.7,4-20.1,15.1-20.1,28.101C20.9,83.8,34.1,97.1,50.5,97.1h24.6c13.801,0,25-11.3,25-25.1 C100.1,61.2,93.3,52,83.8,48.4"/><path fill="#72a998" d="M63.7,14.8c-0.006,0-0.011,0-0.017,0c-0.001,0-0.002,0-0.004,0c-0.005,0-0.01,0-0.015,0 c-0.001,0-0.001,0-0.002,0c-3.582,0.006-6.969,0.844-9.983,2.331c-1.329,0.661-2.591,1.455-3.78,2.369c0.6-0.1,1.3-0.1,1.9-0.1 c12.601,0,22.8,10.2,22.8,22.9c0,3.9-1,7.5-2.699,10.7c9.5,3.6,16.3,12.8,16.3,23.6c0,8.368-4.069,15.743-10.327,20.346 c12.489-1.392,22.215-12.072,22.226-24.924c0-0.001,0-0.001,0-0.002c0-0.007,0-0.013,0-0.02l0,0c0-10.8-6.8-20-16.3-23.6l0,0l0,0 c1.7-3.2,2.7-6.8,2.7-10.7C86.5,25.1,76.3,14.8,63.7,14.8"/><path fill="#454b54" d="M75.1,100.2H50.5c-18,0-32.6-14.7-32.6-32.7c0-13.3,8-25.1,20-30.2c0.3-14,11.7-25.4,25.8-25.4 c14.2,0,25.8,11.6,25.8,25.9c0,3.1-0.6,6.3-1.7,9.2c9.3,4.8,15.3,14.5,15.3,25.1C103.1,87.5,90.5,100.2,75.1,100.2z M63.7,17.9 c-10.9,0-19.8,8.9-19.8,19.9c0,0.5,0,0.9,0.1,1.4c0.1,1.4-0.7,2.6-2,3C31.1,45.8,23.9,56,23.9,67.4c0,14.7,11.9,26.7,26.6,26.7h24.6 c12.2,0,22-9.899,22-22.1c0-9.2-5.8-17.6-14.399-20.8c-0.8-0.3-1.4-0.9-1.8-1.7C80.5,48.7,80.6,47.8,81.1,47 c1.5-2.8,2.301-6.1,2.301-9.3C83.5,26.8,74.6,17.9,63.7,17.9z"/><path fill="#454b54" d="M60.5,121.9c-1.7,0-3-1.301-3-3V47.6c0-1.7,1.3-3,3-3s3,1.3,3,3v71.3 C63.5,120.5,62.2,121.9,60.5,121.9z"/><path fill="#454b54" d="M60.5 70.4c-.4 0-.9-.101-1.3-.301L41 61.5c-1.5-.7-2.1-2.5-1.4-4 .7-1.5 2.5-2.1 4-1.4l18.2 8.7c1.5.7 2.1 2.5 1.4 4C62.7 69.8 61.6 70.4 60.5 70.4zM60.5 88.8c-1.1 0-2.2-.6-2.7-1.7-.7-1.5-.1-3.3 1.3-4l18.1-9c1.5-.699 3.3-.1 4 1.301.7 1.5.1 3.3-1.3 4l-18.101 9C61.4 88.7 61 88.8 60.5 88.8z"/></svg>